#!OML:ASF Y:\EmotionMaleHayes\Project 1\Capture day 1\Session 1\Male1.ASF
:FULLY-SPECIFIED
:DEGREES
1518
root 10.2289 16.0695 1.99828 -176.13 202.579 -545.847
lowerback 4.10941 3.86405 2.95525
upperback 6.314 5.17149 -0.756288
thorax 4.57713 2.72034 -2.41797
lowerneck -18.0059 -5.60054 -3.12452
upperneck 24.2907 -10.7076 12.78
head 11.9123 -3.58848 3.56623
rclavicle 1.63003e-014 -5.56597e-015
rhumerus -19.5476 31.1509 -98.0911
rradius 47.3154
rwrist -1.37287
rhand -10.7086 -27.2552
rfingers 7.12502
rthumb 15.3012 -56.6691
lclavicle 1.63003e-014 -5.56597e-015
lhumerus -25.8795 25.1318 74.3618
lradius 13.2691
lwrist -13.0222
lhand -14.7743 -24.9945
lfingers 7.12502
lthumb 11.3824 4.67657
rfemur 21.4586 6.36238 28.5468
rtibia 13.8546
rfoot -28.2941 2.66772
rtoes -10.0496
lfemur -32.1436 -5.42787 -1.34229
ltibia 25.1949
lfoot 0.951537 0.887825
ltoes 1.54545
1519
root 10.2002 16.0713 2.16664 -176.747 202.743 -545.036
lowerback 4.4343 3.90039 2.27207
upperback 6.44762 5.2277 -1.17391
thorax 4.51462 2.7294 -2.49032
lowerneck -17.9741 -5.77012 -2.95765
upperneck 24.2985 -10.9598 12.6298
head 11.9135 -3.70555 3.43836
rclavicle -1.96797e-014 -7.95139e-016
rhumerus -20.0467 30.0427 -98.482
rradius 46.2102
rwrist -0.86253
rhand -10.4668 -27.905
rfingers 7.12502
rthumb 15.5341 -57.3011
lclavicle -1.96797e-014 -7.95139e-016
lhumerus -25.2467 20.412 76.1992
lradius 14.107
lwrist -7.71406
lhand -16.0569 -23.421
lfingers 7.12502
lthumb 10.1452 6.31444
rfemur 22.0167 7.09512 28.0083
rtibia 14.7767
rfoot -28.0169 2.72183
rtoes -7.2128
lfemur -31.8929 -5.69506 -2.58581
ltibia 26.5184
lfoot -0.0843361 1.24281
ltoes -2.97588
1520
root 10.1693 16.0758 2.33627 -177.408 202.94 -544.09
lowerback 4.67166 3.988 1.40198
upperback 6.61761 5.34344 -1.59555
thorax 4.52644 2.75978 -2.45604
lowerneck -17.8756 -5.96506 -3.07337
upperneck 24.2785 -11.2416 12.7594
head 11.931 -3.83285 3.45993
rclavicle 1.11319e-014 -7.95139e-016
rhumerus -20.4311 28.045 -98.8293
rradius 44.9043
rwrist 0.547604
rhand -12.8524 -29.9905
rfingers 7.12502
rthumb 13.2355 -59.5503
lclavicle 1.11319e-014 -7.95139e-016
lhumerus -24.734 19.76 76.5643
lradius 14.1892
lwrist -6.65572
lhand -17.0883 -22.6839
lfingers 7.12502
lthumb 9.15013 7.09763
rfemur 22.4559 7.59579 27.1958
rtibia 15.8135
rfoot -27.6163 2.5269
rtoes -7.5026
lfemur -31.4703 -5.71022 -4.03616
ltibia 27.5668
lfoot -0.573381 1.4334
ltoes -8.0251
1521
root 10.1377 16.0808 2.5033 -177.777 203.167 -543.976
lowerback 4.85556 4.0204 1.28062
upperback 6.84239 5.39059 -1.81647
thorax 4.67564 2.78625 -2.62177
lowerneck -17.9096 -6.01453 -2.83735
upperneck 24.3088 -11.3242 12.5423
head 11.9267 -3.8718 3.32363
rclavicle -2.84262e-014 2.14687e-014
rhumerus -20.9059 26.7817 -99.2453
rradius 44.0042
rwrist -0.169015
rhand -12.8971 -29.3661
rfingers 7.12502
rthumb 13.1924 -58.9287
lclavicle -2.84262e-014 2.14687e-014
lhumerus -24.1063 22.4814 75.9152
lradius 13.582
lwrist -9.07426
lhand -18.3713 -22.0402
lfingers 7.12502
lthumb 7.91199 7.79173
rfemur 22.6901 7.96125 27.3035
rtibia 17.1316
rfoot -27.0258 1.78471
rtoes -10.9416
lfemur -30.9677 -5.40264 -4.5433
ltibia 28.5577
lfoot -0.797872 1.19852
ltoes -11.4482
1522
root 10.0746 16.0854 2.6696 -178.118 203.477 -544.405
lowerback 5.12236 4.09317 1.33386
upperback 7.0871 5.48711 -1.81009
thorax 4.79668 2.83904 -2.65479
lowerneck -18.0217 -6.08428 -2.6884
upperneck 24.4992 -11.4181 12.2682
head 12.0013 -3.92001 3.18095
rclavicle 3.18055e-014 -1.66979e-014
rhumerus -21.4238 26.2871 -99.238
rradius 43.0794
rwrist -0.682893
rhand -12.8321 -29.0491
rfingers 7.12502
rthumb 13.255 -58.6077
lclavicle 3.18055e-014 -1.66979e-014
lhumerus -23.523 23.9586 75.8101
lradius 13.3775
lwrist -10.0035
lhand -19.9792 -21.2179
lfingers 7.12502
lthumb 6.35993 8.66657
rfemur 23.0376 8.75224 28.4496
rtibia 18.714
rfoot -26.2966 0.697683
rtoes -12.3822
lfemur -30.0708 -4.9946 -4.18316
ltibia 29.3412
lfoot -1.41157 0.731163
ltoes -10.2084
1523
root 10.0249 16.0908 2.83668 -178.49 204.155 -543.833
lowerback 5.36779 4.27976 0.822111
upperback 7.03831 5.73303 -2.21576
thorax 4.61523 2.94672 -2.81442
lowerneck -18.0372 -6.18274 -2.84746
upperneck 24.8827 -11.5321 12.1382
head 12.1636 -3.98459 3.14729
rclavicle 3.85642e-014 -2.06736e-014
rhumerus -22.1553 24.872 -99.3683
rradius 41.9646
rwrist -0.347537
rhand -12.6164 -28.4152
rfingers 7.12502
rthumb 13.4629 -57.9601
lclavicle 3.85642e-014 -2.06736e-014
lhumerus -23.1413 23.3243 76.097
lradius 13.6594
lwrist -8.28021
lhand -21.0201 -20.9759
lfingers 7.12502
lthumb 5.35494 8.93639
rfemur 22.9047 9.28429 27.9624
rtibia 20.4249
rfoot -25.2052 0.713468
rtoes -11.4465
lfemur -29.2294 -4.71093 -4.9284
ltibia 29.8994
lfoot -2.3273 0.638788
ltoes -7.04785
1524
root 10.0251 16.1175 3.00945 -179.157 204.781 -542.429
lowerback 5.52872 4.22122 -0.246483
upperback 7.16764 5.63829 -2.69204
thorax 4.60143 2.85963 -2.72616
lowerneck -18.3595 -6.06379 -3.04234
upperneck 25.2883 -11.2381 11.7325
head 12.3379 -3.89147 3.07959
rclavicle -2.0276e-014 3.26007e-014
rhumerus -22.4591 23.6057 -99.3065
rradius 40.6099
rwrist 0.155774
rhand -13.3647 -29.2349
rfingers 7.12502
rthumb 12.7416 -58.8262
lclavicle -2.0276e-014 3.26007e-014
lhumerus -22.6575 23.2471 76.5882
lradius 14.009
lwrist -6.27405
lhand -21.643 -21.0731
lfingers 7.12502
lthumb 4.75354 8.85357
rfemur 22.3791 9.01351 25.7244
rtibia 22.3164
rfoot -23.7072 1.51808
rtoes -11.62
lfemur -28.3659 -4.96246 -6.92441
ltibia 30.3032
lfoot -3.18524 1.02915
ltoes -8.52688
